<svg xmlns="http://www.w3.org/2000/svg" viewBox="0 0 400 240" fill="none" aria-hidden="true">
  <!-- Subject shape -->
  <rect x="120" y="88" width="80" height="80" rx="6" stroke="#C4A574" stroke-width="1.5" opacity="0.55"/>
  <path d="M136 152l20-28 16 20 12-14 16 22" stroke="#FAF6F0" stroke-width="1" opacity="0.25"/>
  <!-- Scan lines -->
  <path d="M112 104h96M112 120h96M112 136h96M112 152h96" stroke="#C4A574" stroke-width="1" opacity="0.3"/>
  <path d="M112 88v80" stroke="#8F6A3E" stroke-width="1.5" opacity="0.65"/>
  <!-- Camera / eye aperture -->
  <circle cx="272" cy="120" r="36" stroke="#C4A574" stroke-width="1.5" opacity="0.85"/>
  <circle cx="272" cy="120" r="18" stroke="#8F6A3E" stroke-width="1.2" opacity="0.6"/>
  <circle cx="272" cy="120" r="6" fill="#C4A574" opacity="0.55"/>
  <!-- Aperture blades -->
  <path d="M272 88v8M272 144v8M240 120h-8M304 120h8" stroke="#C4A574" stroke-width="1.2" opacity="0.55"/>
  <path d="M246 94l6 6M298 94l-6 6M298 146l-6-6M246 146l6-6" stroke="#C4A574" stroke-width="1" opacity="0.4"/>
  <!-- Detection frame -->
  <path d="M116 84h8v8h-8zM204 84h-8v8h8zM116 172h8v-8h-8zM204 172h-8v-8h8z" stroke="#8F6A3E" stroke-width="1.2" opacity="0.55"/>
</svg>
