<svg xmlns="http://www.w3.org/2000/svg" viewBox="0 0 400 240" fill="none" aria-hidden="true">
  <!-- Browser frame -->
  <rect x="72" y="48" width="256" height="152" rx="10" stroke="#C4A574" stroke-width="1.5" opacity="0.75"/>
  <path d="M72 72h256" stroke="#C4A574" stroke-width="1.2" opacity="0.55"/>
  <circle cx="92" cy="60" r="3" fill="#C4A574" opacity="0.45"/>
  <circle cx="104" cy="60" r="3" fill="#C4A574" opacity="0.35"/>
  <circle cx="116" cy="60" r="3" fill="#C4A574" opacity="0.25"/>
  <!-- Nav bar -->
  <path d="M96 84h48M96 84h0" stroke="#FAF6F0" stroke-width="1" opacity="0.35"/>
  <path d="M168 84h24M208 84h24M248 84h24M288 84h16" stroke="#FAF6F0" stroke-width="1" opacity="0.22"/>
  <!-- Hero headline bar -->
  <rect x="96" y="104" width="128" height="10" rx="2" fill="#C4A574" opacity="0.55"/>
  <rect x="96" y="122" width="96" height="6" rx="2" fill="#FAF6F0" opacity="0.2"/>
  <rect x="96" y="134" width="112" height="6" rx="2" fill="#FAF6F0" opacity="0.15"/>
  <!-- CTA button -->
  <rect x="96" y="152" width="56" height="18" rx="4" stroke="#8F6A3E" stroke-width="1.2" opacity="0.7"/>
  <path d="M108 161h32" stroke="#FAF6F0" stroke-width="1" opacity="0.35"/>
  <!-- Hero image placeholder -->
  <rect x="248" y="104" width="64" height="66" rx="6" stroke="#C4A574" stroke-width="1" opacity="0.4"/>
  <path d="M260 148l16-20 12 14 10-10 14 16" stroke="#FAF6F0" stroke-width="1" opacity="0.25"/>
</svg>
