<svg xmlns="http://www.w3.org/2000/svg" viewBox="0 0 400 240" fill="none" aria-hidden="true">
  <!-- Browser frame -->
  <rect x="56" y="44" width="288" height="152" rx="10" stroke="#C4A574" stroke-width="1.5" opacity="0.75"/>
  <path d="M56 68h288" stroke="#C4A574" stroke-width="1.2" opacity="0.55"/>
  <circle cx="76" cy="56" r="3" fill="#C4A574" opacity="0.45"/>
  <circle cx="88" cy="56" r="3" fill="#C4A574" opacity="0.35"/>
  <circle cx="100" cy="56" r="3" fill="#C4A574" opacity="0.25"/>
  <!-- Sidebar nav -->
  <path d="M56 68v128" stroke="#8F6A3E" stroke-width="1" opacity="0.35"/>
  <rect x="68" y="84" width="48" height="6" rx="2" fill="#C4A574" opacity="0.5"/>
  <path d="M68 100h40M68 112h32M68 124h36M68 136h28" stroke="#FAF6F0" stroke-width="1" opacity="0.22"/>
  <!-- Chart widget -->
  <rect x="132" y="80" width="96" height="64" rx="6" stroke="#C4A574" stroke-width="1.2" opacity="0.55"/>
  <path d="M144 128l20-24 16 12 24-32 20 28" stroke="#FAF6F0" stroke-width="1.5" stroke-linecap="round" stroke-linejoin="round" opacity="0.45"/>
  <path d="M144 136h72" stroke="#8F6A3E" stroke-width="1" opacity="0.35"/>
  <!-- Bar chart widget -->
  <rect x="240" y="80" width="88" height="64" rx="6" stroke="#C4A574" stroke-width="1.2" opacity="0.55"/>
  <rect x="252" y="120" width="10" height="16" rx="1" fill="#C4A574" opacity="0.45"/>
  <rect x="268" y="108" width="10" height="28" rx="1" fill="#C4A574" opacity="0.6"/>
  <rect x="284" y="100" width="10" height="36" rx="1" fill="#C4A574" opacity="0.75"/>
  <rect x="300" y="112" width="10" height="24" rx="1" fill="#C4A574" opacity="0.5"/>
  <!-- Stats row -->
  <rect x="132" y="156" width="56" height="28" rx="4" stroke="#C4A574" stroke-width="1" opacity="0.45"/>
  <rect x="196" y="156" width="56" height="28" rx="4" stroke="#C4A574" stroke-width="1" opacity="0.45"/>
  <rect x="260" y="156" width="68" height="28" rx="4" stroke="#C4A574" stroke-width="1" opacity="0.45"/>
  <path d="M140 168h32M204 168h32M272 168h44" stroke="#FAF6F0" stroke-width="1" opacity="0.2"/>
</svg>
